<svg xmlns="http://www.w3.org/2000/svg" aria-hidden="true">
  <!-- Mise icon sprite — Screening Room line icons, 24×24 grid, 1.7px stroke.
       Use:  <svg class="sr-icon"><use href="/static/icons.svg?v={{ static_rev }}#i-search"/></svg>
       Paths carry no paint attributes; .sr-icon in static/ui.css owns
       stroke/fill so icons always inherit currentColor. Stroke-only set —
       no filled glyphs, so nothing breaks if a context forgets the class. -->
  <symbol id="i-arrow-r" viewBox="0 0 24 24"><path d="M5 12h14"/><path d="m13 6 6 6-6 6"/></symbol>
  <symbol id="i-arrow-l" viewBox="0 0 24 24"><path d="M19 12H5"/><path d="m11 6-6 6 6 6"/></symbol>
  <symbol id="i-arrow-d" viewBox="0 0 24 24"><path d="M12 5v14"/><path d="m6 13 6 6 6-6"/></symbol>
  <symbol id="i-check" viewBox="0 0 24 24"><path d="m4 12.5 5 5L20 6.5"/></symbol>
  <symbol id="i-x" viewBox="0 0 24 24"><path d="M6 6l12 12"/><path d="M18 6 6 18"/></symbol>
  <symbol id="i-plus" viewBox="0 0 24 24"><path d="M12 5v14"/><path d="M5 12h14"/></symbol>
  <symbol id="i-download" viewBox="0 0 24 24"><path d="M12 4v11"/><path d="m7 11 5 5 5-5"/><path d="M5 20h14"/></symbol>
  <symbol id="i-copy" viewBox="0 0 24 24"><rect x="9" y="9" width="11" height="11" rx="1.5"/><path d="M5 15H4V4h11v1"/></symbol>
  <symbol id="i-link" viewBox="0 0 24 24"><path d="M10 14a5 5 0 0 0 7 0l2-2a5 5 0 0 0-7-7l-1 1"/><path d="M14 10a5 5 0 0 0-7 0l-2 2a5 5 0 0 0 7 7l1-1"/></symbol>
  <symbol id="i-search" viewBox="0 0 24 24"><circle cx="11" cy="11" r="7"/><path d="m21 21-4.3-4.3"/></symbol>
  <symbol id="i-calendar" viewBox="0 0 24 24"><rect x="3" y="5" width="18" height="16" rx="2"/><path d="M3 10h18"/><path d="M8 3v4"/><path d="M16 3v4"/></symbol>
  <symbol id="i-clock" viewBox="0 0 24 24"><circle cx="12" cy="12" r="9"/><path d="M12 7v5l3 2"/></symbol>
  <symbol id="i-mail" viewBox="0 0 24 24"><rect x="3" y="5" width="18" height="14" rx="2"/><path d="m3 7 9 6 9-6"/></symbol>
  <symbol id="i-play" viewBox="0 0 24 24"><path d="M8 5.5v13l11-6.5z"/></symbol>
  <symbol id="i-warning" viewBox="0 0 24 24"><path d="M12 4 2.5 20h19z"/><path d="M12 10v4"/><path d="M12 16.8h.01"/></symbol>
  <symbol id="i-camera" viewBox="0 0 24 24"><path d="M4 8h3l2-2.5h6L17 8h3a1 1 0 0 1 1 1v10a1 1 0 0 1-1 1H4a1 1 0 0 1-1-1V9a1 1 0 0 1 1-1z"/><circle cx="12" cy="13" r="3.2"/></symbol>
  <symbol id="i-film" viewBox="0 0 24 24"><rect x="3" y="4" width="18" height="16" rx="2"/><path d="M7 4v16"/><path d="M17 4v16"/><path d="M3 9h4"/><path d="M3 15h4"/><path d="M17 9h4"/><path d="M17 15h4"/></symbol>
  <symbol id="i-menu" viewBox="0 0 24 24"><path d="M4 7h16"/><path d="M4 12h16"/><path d="M4 17h16"/></symbol>
  <symbol id="i-external" viewBox="0 0 24 24"><path d="M14 4h6v6"/><path d="M20 4 11 13"/><path d="M9 5H5a1 1 0 0 0-1 1v13a1 1 0 0 0 1 1h13a1 1 0 0 0 1-1v-4"/></symbol>
  <symbol id="i-trash" viewBox="0 0 24 24"><path d="M4 7h16"/><path d="M9 7V5a1 1 0 0 1 1-1h4a1 1 0 0 1 1 1v2"/><path d="m6.5 7 1 13h9l1-13"/><path d="M10 11v5"/><path d="M14 11v5"/></symbol>
  <symbol id="i-star" viewBox="0 0 24 24"><path d="m12 3.5 2.7 5.4 6 .9-4.3 4.2 1 5.9L12 17l-5.4 2.9 1-5.9L3.3 9.8l6-.9z"/></symbol>
  <symbol id="i-command" viewBox="0 0 24 24"><path d="M9 9h6v6H9z"/><path d="M9 9V6.5A2.5 2.5 0 1 0 6.5 9H9z"/><path d="M15 9h2.5A2.5 2.5 0 1 0 15 6.5V9z"/><path d="M9 15H6.5A2.5 2.5 0 1 0 9 17.5V15z"/><path d="M15 15v2.5a2.5 2.5 0 1 0 2.5-2.5H15z"/></symbol>
  <symbol id="i-grid" viewBox="0 0 24 24"><rect x="4" y="4" width="7" height="7" rx="1"/><rect x="13" y="4" width="7" height="7" rx="1"/><rect x="4" y="13" width="7" height="7" rx="1"/><rect x="13" y="13" width="7" height="7" rx="1"/></symbol>
  <symbol id="i-deck" viewBox="0 0 24 24"><rect x="3" y="4" width="18" height="12" rx="1"/><path d="M12 16v4"/><path d="M8 20h8"/></symbol>
  <symbol id="i-dollar" viewBox="0 0 24 24"><circle cx="12" cy="12" r="9"/><path d="M12 6.5v11"/><path d="M15.5 9c-.7-1-1.9-1.4-3.5-1.4-1.9 0-3.2.9-3.2 2.2 0 3 6.7 1.6 6.7 4.6 0 1.3-1.3 2.2-3.2 2.2-1.6 0-2.9-.5-3.6-1.5"/></symbol>
  <symbol id="i-circle" viewBox="0 0 24 24"><circle cx="12" cy="12" r="7"/></symbol>
</svg>
